<svg id="Badge_Speaker" data-name="Badge Speaker" xmlns="http://www.w3.org/2000/svg" viewBox="0 0 1140 1140"><defs><style>.cls-1{fill:#ffb675;}.cls-2{fill:#ffc694;}.cls-3{fill:#f59540;}.cls-4{fill:#ffa554;}.cls-5{fill:#bd5a04;}.cls-6{fill:#de6a05;}.cls-7{fill:#ff7a06;}.cls-8{fill:#a85004;}.cls-9{fill:#fff;opacity:0.51;}.cls-10{fill:#4fa348;}.cls-11{fill:#eaac9d;}.cls-12{fill:#ffddce;}.cls-13{fill:#ffcbbe;}.cls-14{fill:#212121;}.cls-15{fill:#222221;}.cls-16{fill:#75f16b;}.cls-17{fill:#35fffc;}.cls-18{fill:#00acbf;}</style></defs><g id="Layer_189" data-name="Layer 189"><g id="Outline_Corner_1_copy_8" data-name="Outline Corner 1 copy 8"><path class="cls-1" d="M1017.68,430H982.32l-13.66,13.66L1000,475l31.34-31.34Z" transform="translate(-430 -430)"/></g><g id="Outline_Corner_2_copy_8" data-name="Outline Corner 2 copy 8"><path class="cls-2" d="M1556.34,968.66,1525,1000l31.34,31.34,13.66-13.66V982.32Z" transform="translate(-430 -430)"/></g><g id="Outline_Corner_3_copy_8" data-name="Outline Corner 3 copy 8"><path class="cls-3" d="M1000,1525l-31.34,31.34L982.32,1570h35.36l13.66-13.66Z" transform="translate(-430 -430)"/></g><g id="Outline_Corner_4_copy_8" data-name="Outline Corner 4 copy 8"><path class="cls-4" d="M443.66,968.66,430,982.32v35.36l13.66,13.66L475,1000Z" transform="translate(-430 -430)"/></g><g id="Outline_1_copy_8" data-name="Outline 1 copy 8"><path class="cls-5" d="M1031.34,1556.34l525-525L1525,1000l-525,525Z" transform="translate(-430 -430)"/></g><g id="Outline_3_copy_8" data-name="Outline 3 copy 8"><path class="cls-6" d="M968.66,443.66l-525,525L475,1000l525-525Z" transform="translate(-430 -430)"/></g><g id="Outline_2_copy_8" data-name="Outline 2 copy 8"><path class="cls-7" d="M1031.34,443.66l525,525L1525,1000,1000,475Z" transform="translate(-430 -430)"/></g><g id="Outline_4_copy_8" data-name="Outline 4 copy 8"><path class="cls-8" d="M968.66,1556.34l-525-525L475,1000l525,525Z" transform="translate(-430 -430)"/></g><g id="Inline_copy_8" data-name="Inline copy 8"><rect class="cls-9" x="628.77" y="628.77" width="742.46" height="742.46" transform="translate(-844.21 570) rotate(-45)"/></g><g id="Inline_T1_copy_8" data-name="Inline T1 copy 8"><polygon class="cls-6" points="570 108 570 570 107 570 569.5 107.5 570 108"/></g><g id="Inline_T2_copy_8" data-name="Inline T2 copy 8"><polygon class="cls-7" points="570 108 570 570 1033 570 570.5 107.5 570 108"/></g><g id="Inline_T3_copy_8" data-name="Inline T3 copy 8"><polygon class="cls-5" points="570 1032 570 570 1033 570 570.5 1032.5 570 1032"/></g><g id="Inline_T4_copy_8" data-name="Inline T4 copy 8"><polygon class="cls-8" points="570 1032 570 570 107 570 569.5 1032.5 570 1032"/></g></g><g id="Layer_125_copy_3" data-name="Layer 125 copy 3"><path class="cls-10" d="M1023.17,1139.07a41.75,41.75,0,0,1-13.53-2.26L972.23,1124a41.87,41.87,0,0,1-25.12-55.59l10.53-25.5,15.34,6.34-10.53,25.49a25.28,25.28,0,0,0,15.16,33.56L1015,1121.1a25.3,25.3,0,0,0,31.55-14.26l12.11-29.3,15.34,6.33-12.11,29.31a42,42,0,0,1-38.75,25.89Z" transform="translate(-430 -430)"/><path class="cls-11" d="M956.5,975.16H761.09a28.41,28.41,0,0,1,0-56.82H956.5a28.41,28.41,0,0,1,0,56.82Z" transform="translate(-430 -430)"/><path class="cls-12" d="M858.79,1066.38a82.25,82.25,0,0,1-82.26-82.25V906.19a82.26,82.26,0,0,1,164.52,0v77.94A82.25,82.25,0,0,1,858.79,1066.38Z" transform="translate(-430 -430)"/><path class="cls-13" d="M879.91,1063.66a82.35,82.35,0,0,1-103.38-79.53V906.2a82.35,82.35,0,0,1,103.38-79.53,82.3,82.3,0,0,0-61.16,79.53v77.92a82.3,82.3,0,0,0,61.16,79.54Z" transform="translate(-430 -430)"/><path class="cls-14" d="M848.4,941.29a8.29,8.29,0,0,1-8.3-8.3V916.38a8.3,8.3,0,0,1,16.6,0V933A8.3,8.3,0,0,1,848.4,941.29Z" transform="translate(-430 -430)"/><path class="cls-14" d="M891.32,941.29A8.3,8.3,0,0,1,883,933V916.38a8.3,8.3,0,0,1,16.6,0V933A8.29,8.29,0,0,1,891.32,941.29Z" transform="translate(-430 -430)"/><path class="cls-15" d="M788.3,807.79h7.22a39.69,39.69,0,0,1,39.69,39.69v.3a39.69,39.69,0,0,1-39.69,39.69H788.3a39.69,39.69,0,0,1-39.69-39.69v-.3A39.69,39.69,0,0,1,788.3,807.79Z" transform="translate(-430 -430)"/><path d="M806.12,886a39,39,0,0,1-10.59,1.45h-7.22a39.69,39.69,0,0,1-39.7-39.69v-.3a39.68,39.68,0,0,1,39.7-39.68h7.22a39,39,0,0,1,10.59,1.44A39.66,39.66,0,0,0,777,847.48v.3A39.65,39.65,0,0,0,806.12,886Z" transform="translate(-430 -430)"/><path class="cls-15" d="M828.32,835.92a57,57,0,0,0,57,57.05,92.79,92.79,0,0,0,92.79-92.79v-7.56H869.55A41.28,41.28,0,0,0,828.32,835.92Z" transform="translate(-430 -430)"/><path d="M903.89,891.12A92.62,92.62,0,0,1,885.37,893a57,57,0,0,1-57-57.05,41.27,41.27,0,0,1,41.23-43.29h33a41.27,41.27,0,0,0-41.23,43.29A57.08,57.08,0,0,0,903.89,891.12Z" transform="translate(-430 -430)"/><path class="cls-16" d="M1136.79,895.35v218.26L924.94,1041V968Z" transform="translate(-430 -430)"/><path class="cls-10" d="M1136.79,1046.72v66.89L924.94,1041v-24Z" transform="translate(-430 -430)"/><path class="cls-17" d="M982.46,1173.55a165.64,165.64,0,0,1-255.74-74.26,27.67,27.67,0,0,1,51.91-19.16,110.3,110.3,0,0,0,165.65,52.74l31,11.79Z" transform="translate(-430 -430)"/><path class="cls-18" d="M949.82,1192.89a166.87,166.87,0,0,1-68,14.49,165.46,165.46,0,0,1-155.11-108.09,27.68,27.68,0,0,1,27.7-37.19,27.63,27.63,0,0,0-6.73,29.47A165.49,165.49,0,0,0,902.8,1199.66a167.64,167.64,0,0,0,47-6.77Z" transform="translate(-430 -430)"/><path class="cls-12" d="M1017.49,1137.15a165.07,165.07,0,0,1-35,36.4l-38.17-40.69a109.44,109.44,0,0,0,27.94-27.56,27.67,27.67,0,1,1,45.25,31.85Z" transform="translate(-430 -430)"/><path class="cls-13" d="M1018.15,1106.28a27.68,27.68,0,0,0-37.57,7.36,109.64,109.64,0,0,1-27.94,27.57l-8.34-8.34a109.64,109.64,0,0,0,27.94-27.57,27.65,27.65,0,0,1,45.91,1Z" transform="translate(-430 -430)"/><path class="cls-17" d="M1192.83,1088.91l1.21-2.26a17.15,17.15,0,0,1,22.19-7.53l25.31,11.42a17.16,17.16,0,0,1,8.07,23.77l-3,5.6a17.16,17.16,0,0,1-24.27,6.42l-23.51-14.77A17.16,17.16,0,0,1,1192.83,1088.91Z" transform="translate(-430 -430)"/><path class="cls-17" d="M1212.91,1006.24l-.08-2.56a17.17,17.17,0,0,1,15.46-17.62l27.63-2.77a17.17,17.17,0,0,1,18.87,16.55l.2,6.36a17.16,17.16,0,0,1-17.8,17.69l-27.75-1A17.19,17.19,0,0,1,1212.91,1006.24Z" transform="translate(-430 -430)"/><path class="cls-17" d="M1189,924.6l-1.34-2.17a17.17,17.17,0,0,1,4.57-23l22.54-16.21a17.17,17.17,0,0,1,24.62,4.89l3.36,5.41a17.18,17.18,0,0,1-6.57,24.23l-24.55,13A17.18,17.18,0,0,1,1189,924.6Z" transform="translate(-430 -430)"/><path class="cls-14" d="M861.44,954.21H877.9a14.59,14.59,0,0,1,14.59,14.58v28.85a22.82,22.82,0,0,1-45.64,0V968.79a14.59,14.59,0,0,1,14.59-14.58Z" transform="translate(-430 -430)"/></g></svg>